<mxfile host="app.diagrams.net" modified="2023-08-31T08:04:37.186Z" agent="Mozilla/5.0 (Windows NT 10.0; Win64; x64) AppleWebKit/537.36 (KHTML, like Gecko) Chrome/116.0.0.0 Safari/537.36" version="21.6.8" etag="jd6UTNJMMXWIprW92wSX" type="github">
  <diagram name="Page-1" id="OMj694b3bHi5qTvlIs6d">
    <mxGraphModel>
      <root>
        <mxCell id="0" />
        <mxCell id="1" parent="0" />
      </root>
    </mxGraphModel>
  </diagram>
</mxfile>
